<svg width="50" height="50" viewBox="0 0 50 50" fill="none" xmlns="http://www.w3.org/2000/svg">
<path d="M48.097 15.4329C49.3534 18.4661 50 21.717 50 25H36.1055C37.0039 25 37.7233 24.8177 38.2637 24.4531C38.804 24.0885 39.1947 23.5352 39.4355 22.793C39.6829 22.0443 39.8066 21.1068 39.8066 19.9805L39.7969 12.2266C39.7969 11.2956 39.6764 10.5013 39.4355 9.84375C39.2012 9.1862 38.8203 8.6849 38.293 8.33984C37.7656 7.98828 37.0658 7.8125 36.1934 7.8125H32.3359V25H26.1367V18.1348L28.8809 7.8125H26.3906L24.877 14.2383H24.8379L23.1387 7.8125H20.6387L23.5195 18.1348V25H15.2233C15.4928 24.9143 15.736 24.8004 15.9531 24.6582C16.5065 24.3001 16.9102 23.7598 17.1641 23.0371C17.418 22.3079 17.5449 21.3997 17.5449 20.3125V17.8809H14.9766V20.3418C14.9766 21.2467 14.8984 21.9076 14.7422 22.3242C14.5859 22.7409 14.2865 22.9492 13.8438 22.9492C13.5508 22.9492 13.3229 22.8613 13.1602 22.6855C12.9974 22.5033 12.8802 22.2233 12.8086 21.8457C12.7435 21.4616 12.7109 20.9701 12.7109 20.3711V12.3438C12.7109 11.569 12.7891 10.9668 12.9453 10.5371C13.1081 10.1009 13.4271 9.88281 13.9023 9.88281C14.332 9.88281 14.6185 10.0846 14.7617 10.4883C14.9049 10.8854 14.9766 11.5072 14.9766 12.3535V14.5508H17.5059V12.1875C17.5059 11.4844 17.4375 10.8529 17.3008 10.293C17.1706 9.72656 16.959 9.24479 16.666 8.84766C16.3796 8.45052 16.0052 8.14779 15.543 7.93945C15.0872 7.72461 14.5339 7.61719 13.8828 7.61719C13.1667 7.61719 12.5645 7.73763 12.0762 7.97852C11.5879 8.2194 11.1973 8.56445 10.9043 9.01367C10.6113 9.46289 10.3997 10.0033 10.2695 10.6348C10.1393 11.2663 10.0742 11.9759 10.0742 12.7637V20.2539C10.0742 21.3021 10.2109 22.1973 10.4844 22.9395C10.7643 23.6751 11.181 24.235 11.7344 24.6191C11.9656 24.7796 12.2212 24.9066 12.5012 25L0 25C0 21.717 0.646644 18.4661 1.90301 15.4329C3.15938 12.3998 5.00086 9.6438 7.32233 7.32233C9.64379 5.00087 12.3998 3.15938 15.4329 1.90301C18.4661 0.646644 21.717 0 25 0C28.283 0 31.5339 0.646644 34.5671 1.90301C37.6002 3.15938 40.3562 5.00087 42.6777 7.32233C44.9991 9.6438 46.8406 12.3998 48.097 15.4329Z" fill="#59ab6e"/>
<path d="M35.8125 22.9688H34.9531V9.82422H35.7246C36.265 9.82422 36.6426 10.0163 36.8574 10.4004C37.0723 10.7845 37.1797 11.416 37.1797 12.2949L37.1895 20.7812C37.1895 21.3607 37.1374 21.8099 37.0332 22.1289C36.9355 22.4414 36.7826 22.6595 36.5742 22.7832C36.3724 22.9069 36.1185 22.9688 35.8125 22.9688Z" fill="#59ab6e"/>
<path d="M15.1719 42.3454C14.1693 42.3454 13.4727 41.9808 13.082 41.2516C12.6979 40.5225 12.4993 39.5557 12.4863 38.3513V37.4138C12.4863 36.6325 12.597 35.9977 12.8184 35.5095C13.0462 35.0212 13.3685 34.624 13.7852 34.3181C14.2018 34.0121 14.6999 33.7451 15.2793 33.5173C15.8587 33.2894 16.5033 33.0453 17.2129 32.7849V31.5056C17.2129 31.0108 17.1934 30.6169 17.1543 30.3239C17.1152 30.0244 17.0273 29.8063 16.8906 29.6696C16.7539 29.5329 16.5423 29.4645 16.2559 29.4645C15.9759 29.4645 15.7611 29.5362 15.6113 29.6794C15.4681 29.8161 15.3704 30.0309 15.3184 30.3239C15.2663 30.6104 15.2402 30.9782 15.2402 31.4274V32.0817H12.6816V31.6423C12.6816 30.9717 12.737 30.3727 12.8477 29.8454C12.9648 29.3181 13.1602 28.8721 13.4336 28.5075C13.707 28.1364 14.0781 27.8565 14.5469 27.6677C15.0221 27.4724 15.6178 27.3747 16.334 27.3747C16.9655 27.3747 17.5059 27.4658 17.9551 27.6481C18.4043 27.8239 18.7689 28.0908 19.0488 28.4489C19.3288 28.8005 19.5339 29.2432 19.6641 29.777C19.7943 30.3109 19.8594 30.9326 19.8594 31.6423V42.1989H17.252V40.7438C17.1738 41.0238 17.0404 41.2875 16.8516 41.5349C16.6628 41.7757 16.4251 41.9711 16.1387 42.1208C15.8587 42.2705 15.5365 42.3454 15.1719 42.3454ZM16.0703 40.3532C16.3958 40.3532 16.6562 40.236 16.8516 40.0016C17.0469 39.7673 17.1673 39.5296 17.2129 39.2888V34.2497C16.8223 34.4255 16.4935 34.5915 16.2266 34.7477C15.9596 34.8975 15.7448 35.0635 15.582 35.2458C15.4193 35.4281 15.3021 35.6429 15.2305 35.8903C15.1589 36.1377 15.123 36.4404 15.123 36.7985V38.4391C15.123 39.1097 15.1914 39.598 15.3281 39.904C15.4714 40.2035 15.7188 40.3532 16.0703 40.3532Z" fill="#59ab6e"/>
<path d="M24.2617 42.1989V27.5505H26.8691V29.1813C27.0384 28.6149 27.3314 28.1722 27.748 27.8532C28.1712 27.5342 28.7083 27.3747 29.3594 27.3747C29.3724 27.3747 29.3789 27.4854 29.3789 27.7067C29.3854 27.9281 29.3887 28.182 29.3887 28.4684C29.3887 28.7549 29.3887 29.0088 29.3887 29.2302C29.3887 29.4515 29.3887 29.5622 29.3887 29.5622C29.0892 29.5622 28.7637 29.598 28.4121 29.6696C28.0671 29.7412 27.7513 29.8519 27.4648 30.0016C27.1849 30.1449 26.9863 30.3369 26.8691 30.5778V42.1989H24.2617Z" fill="#59ab6e"/>
<path d="M35.7148 42.2966C35.0898 42.2966 34.6113 42.2184 34.2793 42.0622C33.9473 41.8994 33.7194 41.6455 33.5957 41.3005C33.472 40.9554 33.4102 40.5095 33.4102 39.9626V29.7282H32.2188V27.8532H33.4102V25.0114H35.998V27.8532H37.4238V29.7282H35.998V39.5134C35.998 39.7412 36.0339 39.9138 36.1055 40.0309C36.1771 40.1481 36.3171 40.2263 36.5254 40.2653C36.7402 40.3044 37.056 40.3239 37.4727 40.3239V42.2966H35.7148Z" fill="#59ab6e"/>
<circle cx="25" cy="25" r="24.5" stroke="#59ab6e"/>
</svg>
